<svg width="30" height="29" viewBox="0 0 30 29" fill="none" xmlns="http://www.w3.org/2000/svg">
<g id="&#240;&#159;&#166;&#134; icon &#34;User Circle&#34;">
<path id="Vector" d="M14.5326 -0.000610352C6.52274 -0.000610352 0.032959 6.48917 0.032959 14.4991C0.032959 22.509 6.52274 28.9988 14.5326 28.9988C22.5425 28.9988 29.0323 22.509 29.0323 14.4991C29.0323 6.48917 22.5425 -0.000610352 14.5326 -0.000610352ZM14.5326 5.61217C17.3741 5.61217 19.6777 7.91575 19.6777 10.7572C19.6777 13.5987 17.3741 15.9023 14.5326 15.9023C11.6912 15.9023 9.38759 13.5987 9.38759 10.7572C9.38759 7.91575 11.6912 5.61217 14.5326 5.61217ZM14.5326 25.7246C11.1007 25.7246 8.02532 24.1694 5.96731 21.7372C7.06647 19.6675 9.21804 18.2409 11.7263 18.2409C11.8666 18.2409 12.0069 18.2643 12.1414 18.3052C12.9014 18.5508 13.6966 18.7087 14.5326 18.7087C15.3687 18.7087 16.1697 18.5508 16.9239 18.3052C17.0584 18.2643 17.1987 18.2409 17.339 18.2409C19.8472 18.2409 21.9988 19.6675 23.098 21.7372C21.04 24.1694 17.9646 25.7246 14.5326 25.7246Z" fill="white"/>
</g>
</svg>
