<svg width="34" height="34" viewBox="0 0 34 34" fill="none" xmlns="http://www.w3.org/2000/svg">
<g id="&#240;&#159;&#166;&#134; icon &#34;shopping cart&#34;">
<g id="Group">
<path id="Vector" d="M29.8628 9.91648C29.618 9.49236 29.2675 9.13893 28.8454 8.89065C28.4233 8.64237 27.9441 8.50772 27.4545 8.49984H9.3215L8.49984 5.29823C8.41683 4.98917 8.23162 4.71733 7.97438 4.52697C7.71714 4.33661 7.40303 4.23896 7.0832 4.24992H4.24992C3.87421 4.24992 3.51388 4.39917 3.24821 4.66484C2.98254 4.93051 2.83328 5.29084 2.83328 5.66656C2.83328 6.04227 2.98254 6.4026 3.24821 6.66827C3.51388 6.93394 3.87421 7.0832 4.24992 7.0832H6.00656L9.91648 21.6179C9.9995 21.927 10.1847 22.1988 10.4419 22.3892C10.6992 22.5795 11.0133 22.6772 11.3331 22.6662H24.0829C24.3445 22.6654 24.6008 22.5922 24.8233 22.4547C25.0459 22.3172 25.226 22.1207 25.3437 21.8871L29.9903 12.5939C30.1917 12.1718 30.2854 11.7064 30.2632 11.2392C30.2409 10.772 30.1034 10.3176 29.8628 9.91648Z" fill="white"/>
<path id="Vector_2" d="M10.6248 29.7494C11.7984 29.7494 12.7498 28.7981 12.7498 27.6245C12.7498 26.4509 11.7984 25.4995 10.6248 25.4995C9.45122 25.4995 8.49985 26.4509 8.49985 27.6245C8.49985 28.7981 9.45122 29.7494 10.6248 29.7494Z" fill="white"/>
<path id="Vector_3" d="M24.7912 29.7494C25.9648 29.7494 26.9162 28.7981 26.9162 27.6245C26.9162 26.4509 25.9648 25.4995 24.7912 25.4995C23.6176 25.4995 22.6662 26.4509 22.6662 27.6245C22.6662 28.7981 23.6176 29.7494 24.7912 29.7494Z" fill="white"/>
</g>
</g>
</svg>
