<svg width="44" height="44" viewBox="0 0 44 44" fill="none" xmlns="http://www.w3.org/2000/svg">
<rect width="44" height="44" fill="#1B1B1B"/>
<g clip-path="url(#clip0_0_1)">
<rect width="1280" height="832" transform="translate(-49 -48)" fill="white"/>
<rect x="-49" y="-48" width="1280" height="167" fill="#B63AF0"/>
<path d="M44 22C44 26.3512 42.7097 30.6047 40.2923 34.2225C37.8749 37.8404 34.439 40.6602 30.419 42.3253C26.3991 43.9905 21.9756 44.4261 17.708 43.5773C13.4404 42.7284 9.52041 40.6331 6.44366 37.5563C3.3669 34.4796 1.27161 30.5596 0.422734 26.292C-0.426141 22.0244 0.00953224 17.6009 1.67466 13.581C3.33979 9.56099 6.15958 6.12506 9.77746 3.70767C13.3953 1.29028 17.6488 0 22 0C24.8891 0 27.7499 0.569047 30.419 1.67465C33.0882 2.78025 35.5135 4.40076 37.5564 6.44365C39.5992 8.48654 41.2197 10.9118 42.3253 13.581C43.431 16.2501 44 19.1109 44 22ZM12.6187 22.7003C13.4332 22.2394 14.0388 21.4825 14.31 20.5868C14.5811 19.6911 14.4969 18.7253 14.0748 17.8901C13.3328 15.7782 11.4794 14.4999 9.93433 15.0446C9.12055 15.5055 8.51537 16.2618 8.24427 17.1569C7.97317 18.0519 8.05694 19.017 8.47822 19.852C9.22017 21.9666 11.0736 23.2421 12.6187 22.7003ZM31.1368 24.776C29.9481 23.5858 28.5364 22.6416 26.9824 21.9973C25.4285 21.3531 23.7628 21.0215 22.0806 21.0215C20.3984 21.0215 18.7327 21.3531 17.1788 21.9973C15.6248 22.6416 14.2131 23.5858 13.0244 24.776C12.047 25.7967 11.5082 27.1596 11.5236 28.5727C11.5389 29.9858 12.107 31.3367 13.1063 32.3359C14.1055 33.3352 15.4564 33.9034 16.8695 33.9187C18.2826 33.934 19.6455 33.3952 20.6662 32.4178C21.0412 32.0437 21.5494 31.8335 22.0792 31.8335C22.609 31.8335 23.1172 32.0437 23.4922 32.4178C24.5129 33.3952 25.8758 33.934 27.2889 33.9187C28.702 33.9034 30.0529 33.3352 31.0521 32.3359C32.0514 31.3367 32.6195 29.9858 32.6348 28.5727C32.6502 27.1596 32.1114 25.7967 31.134 24.776H31.1368ZM14.6083 14.7945C14.8501 17.3455 16.5535 19.2684 18.4209 19.0933C20.2827 18.9155 21.5971 16.7035 21.3581 14.1554C21.1163 11.6072 19.4101 9.68144 17.5455 9.85929C15.6837 10.0344 14.3666 12.2463 14.6083 14.7945ZM25.732 19.0933C27.5966 19.2684 29.3028 17.3427 29.5445 14.7945C29.7863 12.2463 28.4719 10.0344 26.6073 9.85929C24.7455 9.68144 23.0365 11.6072 22.7948 14.1554C22.5558 16.7063 23.8702 18.9155 25.732 19.0933ZM34.2269 15.0446C32.6818 14.5027 30.8283 15.7754 30.0864 17.8901C29.6651 18.7251 29.5813 19.6901 29.8524 20.5852C30.1236 21.4802 30.7287 22.2366 31.5425 22.6975C33.0875 23.2421 34.941 21.9666 35.683 19.852C36.1042 19.017 36.188 18.0519 35.9169 17.1569C35.6458 16.2618 35.0406 15.5055 34.2269 15.0446Z" fill="white"/>
</g>
<defs>
<clipPath id="clip0_0_1">
<rect width="1280" height="832" fill="white" transform="translate(-49 -48)"/>
</clipPath>
</defs>
</svg>
